<?xml version="1.0" standalone="no"?>
 <!DOCTYPE svg PUBLIC "-//W3C//DTD SVG 1.1//EN" 
 "http://www.w3.org/Graphics/SVG/1.1/DTD/svg11.dtd"> 
<svg
  xmlns:svg="http://www.w3.org/2000/svg"
  xmlns="http://www.w3.org/2000/svg"
  xmlns:xlink="http://www.w3.org/1999/xlink"
  version="1.1"
  width="7.030720cm" height="7.846060cm" viewBox="0 0 70307200 78460600">
<title>SVG Picture created as Attiny1614_remote-F_Cu.svg date 2022/06/08 11:01:26 </title>
  <desc>Picture generated by PCBNEW </desc>
<g style="fill:#000000; fill-opacity:1.000000;stroke:#000000; stroke-opacity:1.000000;
stroke-linecap:round; stroke-linejoin:round;"
 transform="translate(0 0) scale(1 1)">
</g>
<g style="fill:#000000; fill-opacity:0.0; 
stroke:#000000; stroke-width:0.000000; stroke-opacity:1; 
stroke-linecap:round; stroke-linejoin:round;">
</g>
<g style="fill:#000000; fill-opacity:1.0; 
stroke:#000000; stroke-width:1.000000; stroke-opacity:1; 
stroke-linecap:round; stroke-linejoin:round;">
<circle cx="41174000.000000" cy="66329500.000000" r="1015810.000000" /> 
<g >
<path style="fill:#000000; fill-opacity:1.0; 
stroke:#000000; stroke-width:1.000000; stroke-opacity:1; 
stroke-linecap:round; stroke-linejoin:round;fill-rule:evenodd;"
d="M 28132001.000000,46311501.000000
29831999.000000,46311501.000000
29831999.000000,48311499.000000
28132001.000000,48311499.000000
Z" /> 
<path style="fill:#000000; fill-opacity:1.0; 
stroke:#000000; stroke-width:1.000000; stroke-opacity:1; 
stroke-linecap:round; stroke-linejoin:round;fill-rule:evenodd;"
d="M 28132001.000000,50311501.000000
29831999.000000,50311501.000000
29831999.000000,52311499.000000
28132001.000000,52311499.000000
Z" /> 
</g>
<g >
</g>
<g style="fill:#000000; fill-opacity:1.0; 
stroke:#000000; stroke-width:1.000000; stroke-opacity:1; 
stroke-linecap:round; stroke-linejoin:round;">
<path style="fill:#000000; fill-opacity:1.0; 
stroke:#000000; stroke-width:1.000000; stroke-opacity:1; 
stroke-linecap:round; stroke-linejoin:round;fill-rule:evenodd;"
d="M 27252001.000000,55241499.000000
27252001.000000,53541501.000000
29251999.000000,53541501.000000
29251999.000000,55241499.000000
Z" /> 
<path style="fill:#000000; fill-opacity:1.0; 
stroke:#000000; stroke-width:1.000000; stroke-opacity:1; 
stroke-linecap:round; stroke-linejoin:round;fill-rule:evenodd;"
d="M 31252001.000000,55241499.000000
31252001.000000,53541501.000000
33251999.000000,53541501.000000
33251999.000000,55241499.000000
Z" /> 
</g>
<g >
</g>
<g style="fill:#000000; fill-opacity:1.0; 
stroke:#000000; stroke-width:1.000000; stroke-opacity:1; 
stroke-linecap:round; stroke-linejoin:round;">
<circle cx="45492000.000000" cy="48803500.000000" r="850000.000000" /> 
</g>
<g style="fill:#000000; fill-opacity:1.0; 
stroke:#000000; stroke-width:21200.000000; stroke-opacity:1; 
stroke-linecap:round; stroke-linejoin:round;">
</g>
<g style="fill:#000000; fill-opacity:1.0; 
stroke:#000000; stroke-width:1.000000; stroke-opacity:1; 
stroke-linecap:round; stroke-linejoin:round;">
<circle cx="45492000.000000" cy="51343500.000000" r="850000.000000" /> 
<circle cx="45492000.000000" cy="53883500.000000" r="850000.000000" /> 
<circle cx="45492000.000000" cy="56423500.000000" r="850000.000000" /> 
<circle cx="45492000.000000" cy="58963500.000000" r="850000.000000" /> 
<circle cx="45492000.000000" cy="61503500.000000" r="850000.000000" /> 
</g>
<g >
</g>
<g style="fill:#000000; fill-opacity:1.0; 
stroke:#000000; stroke-width:1.000000; stroke-opacity:1; 
stroke-linecap:round; stroke-linejoin:round;">
<path style="fill:#000000; fill-opacity:1.0; 
stroke:#000000; stroke-width:1.000000; stroke-opacity:1; 
stroke-linecap:round; stroke-linejoin:round;fill-rule:evenodd;"
d="M 53896000.000000,23281500.000000
54089193.000000,23293993.000000
54329548.000000,23345521.000000
54558259.000000,23435612.000000
54769184.000000,23561849.000000
54956660.000000,23720840.000000
55115651.000000,23908316.000000
55241888.000000,24119241.000000
55331979.000000,24347952.000000
55383507.000000,24588307.000000
55396000.000000,24781500.000000
55396000.000000,27781500.000000
55383507.000000,27974693.000000
55331979.000000,28215048.000000
55241888.000000,28443759.000000
55115651.000000,28654684.000000
54956660.000000,28842160.000000
54769184.000000,29001151.000000
54558259.000000,29127388.000000
54329548.000000,29217479.000000
54089193.000000,29269007.000000
53896000.000000,29281500.000000
50896000.000000,29281500.000000
50702807.000000,29269007.000000
50462452.000000,29217479.000000
50233741.000000,29127388.000000
50022816.000000,29001151.000000
49835340.000000,28842160.000000
49676349.000000,28654684.000000
49550112.000000,28443759.000000
49460021.000000,28215048.000000
49408493.000000,27974693.000000
49396000.000000,27781500.000000
49396000.000000,24781500.000000
49408493.000000,24588307.000000
49460021.000000,24347952.000000
49550112.000000,24119241.000000
49676349.000000,23908316.000000
49835340.000000,23720840.000000
50022816.000000,23561849.000000
50233741.000000,23435612.000000
50462452.000000,23345521.000000
50702807.000000,23293993.000000
50896000.000000,23281500.000000
Z" /> 
<circle cx="52396000.000000" cy="33481500.000000" r="3000000.000000" /> 
</g>
<g style="fill:#000000; fill-opacity:1.0; 
stroke:#000000; stroke-width:21200.000000; stroke-opacity:1; 
stroke-linecap:round; stroke-linejoin:round;">
</g>
<g >
</g>
<g style="fill:#000000; fill-opacity:1.0; 
stroke:#000000; stroke-width:21200.000000; stroke-opacity:1; 
stroke-linecap:round; stroke-linejoin:round;">
</g>
<g style="fill:#000000; fill-opacity:1.0; 
stroke:#000000; stroke-width:1.000000; stroke-opacity:1; 
stroke-linecap:round; stroke-linejoin:round;">
<path style="fill:#000000; fill-opacity:1.0; 
stroke:#000000; stroke-width:1.000000; stroke-opacity:1; 
stroke-linecap:round; stroke-linejoin:round;fill-rule:evenodd;"
d="M 39483999.000000,50279499.000000
37784001.000000,50279499.000000
37784001.000000,48279501.000000
39483999.000000,48279501.000000
Z" /> 
<path style="fill:#000000; fill-opacity:1.0; 
stroke:#000000; stroke-width:1.000000; stroke-opacity:1; 
stroke-linecap:round; stroke-linejoin:round;fill-rule:evenodd;"
d="M 39483999.000000,46279499.000000
37784001.000000,46279499.000000
37784001.000000,44279501.000000
39483999.000000,44279501.000000
Z" /> 
</g>
<g >
</g>
<g style="fill:#000000; fill-opacity:1.0; 
stroke:#000000; stroke-width:1.000000; stroke-opacity:1; 
stroke-linecap:round; stroke-linejoin:round;">
<path style="fill:#000000; fill-opacity:1.0; 
stroke:#000000; stroke-width:1.000000; stroke-opacity:1; 
stroke-linecap:round; stroke-linejoin:round;fill-rule:evenodd;"
d="M 19418000.000000,71397500.000000
19398970.000000,71493171.000000
19344777.000000,71574277.000000
19263671.000000,71628470.000000
19168000.000000,71647500.000000
17968000.000000,71647500.000000
17872329.000000,71628470.000000
17791223.000000,71574277.000000
17737030.000000,71493171.000000
17718000.000000,71397500.000000
17718000.000000,69897500.000000
17737030.000000,69801829.000000
17791223.000000,69720723.000000
17872329.000000,69666530.000000
17968000.000000,69647500.000000
19168000.000000,69647500.000000
19263671.000000,69666530.000000
19344777.000000,69720723.000000
19398970.000000,69801829.000000
19418000.000000,69897500.000000
Z" /> 
</g>
<g style="fill:#000000; fill-opacity:1.0; 
stroke:#000000; stroke-width:1700000.000000; stroke-opacity:1; 
stroke-linecap:round; stroke-linejoin:round;">
</g>
<g style="fill:#000000; fill-opacity:0.0; 
stroke:#000000; stroke-width:1700000.000000; stroke-opacity:1; 
stroke-linecap:round; stroke-linejoin:round;">
<path d="M16068000 70797500
L16068000 70497500
" />
</g>
<g >
</g>
<g style="fill:#000000; fill-opacity:0.0; 
stroke:#000000; stroke-width:1700000.000000; stroke-opacity:1; 
stroke-linecap:round; stroke-linejoin:round;">
</g>
<g style="fill:#000000; fill-opacity:0.0; 
stroke:#000000; stroke-width:1.000000; stroke-opacity:1; 
stroke-linecap:round; stroke-linejoin:round;">
</g>
<g style="fill:#000000; fill-opacity:1.0; 
stroke:#000000; stroke-width:1.000000; stroke-opacity:1; 
stroke-linecap:round; stroke-linejoin:round;">
<path style="fill:#000000; fill-opacity:1.0; 
stroke:#000000; stroke-width:1.000000; stroke-opacity:1; 
stroke-linecap:round; stroke-linejoin:round;fill-rule:evenodd;"
d="M 32625999.000000,52311499.000000
30926001.000000,52311499.000000
30926001.000000,50311501.000000
32625999.000000,50311501.000000
Z" /> 
<path style="fill:#000000; fill-opacity:1.0; 
stroke:#000000; stroke-width:1.000000; stroke-opacity:1; 
stroke-linecap:round; stroke-linejoin:round;fill-rule:evenodd;"
d="M 32625999.000000,48311499.000000
30926001.000000,48311499.000000
30926001.000000,46311501.000000
32625999.000000,46311501.000000
Z" /> 
</g>
<g >
</g>
<g style="fill:#000000; fill-opacity:1.0; 
stroke:#000000; stroke-width:1.000000; stroke-opacity:1; 
stroke-linecap:round; stroke-linejoin:round;">
<path style="fill:#000000; fill-opacity:1.0; 
stroke:#000000; stroke-width:1.000000; stroke-opacity:1; 
stroke-linecap:round; stroke-linejoin:round;fill-rule:evenodd;"
d="M 11896000.000000,23281500.000000
12089193.000000,23293993.000000
12329548.000000,23345521.000000
12558259.000000,23435612.000000
12769184.000000,23561849.000000
12956660.000000,23720840.000000
13115651.000000,23908316.000000
13241888.000000,24119241.000000
13331979.000000,24347952.000000
13383507.000000,24588307.000000
13396000.000000,24781500.000000
13396000.000000,27781500.000000
13383507.000000,27974693.000000
13331979.000000,28215048.000000
13241888.000000,28443759.000000
13115651.000000,28654684.000000
12956660.000000,28842160.000000
12769184.000000,29001151.000000
12558259.000000,29127388.000000
12329548.000000,29217479.000000
12089193.000000,29269007.000000
11896000.000000,29281500.000000
8896000.000000,29281500.000000
8702807.000000,29269007.000000
8462452.000000,29217479.000000
8233741.000000,29127388.000000
8022816.000000,29001151.000000
7835340.000000,28842160.000000
7676349.000000,28654684.000000
7550112.000000,28443759.000000
7460021.000000,28215048.000000
7408493.000000,27974693.000000
7396000.000000,27781500.000000
7396000.000000,24781500.000000
7408493.000000,24588307.000000
7460021.000000,24347952.000000
7550112.000000,24119241.000000
7676349.000000,23908316.000000
7835340.000000,23720840.000000
8022816.000000,23561849.000000
8233741.000000,23435612.000000
8462452.000000,23345521.000000
8702807.000000,23293993.000000
8896000.000000,23281500.000000
Z" /> 
<circle cx="10396000.000000" cy="33481500.000000" r="3000000.000000" /> 
</g>
<g style="fill:#000000; fill-opacity:1.0; 
stroke:#000000; stroke-width:21200.000000; stroke-opacity:1; 
stroke-linecap:round; stroke-linejoin:round;">
</g>
<g >
</g>
<g style="fill:#000000; fill-opacity:1.0; 
stroke:#000000; stroke-width:21200.000000; stroke-opacity:1; 
stroke-linecap:round; stroke-linejoin:round;">
</g>
<g style="fill:#000000; fill-opacity:1.0; 
stroke:#000000; stroke-width:1.000000; stroke-opacity:1; 
stroke-linecap:round; stroke-linejoin:round;">
<path style="fill:#000000; fill-opacity:1.0; 
stroke:#000000; stroke-width:1.000000; stroke-opacity:1; 
stroke-linecap:round; stroke-linejoin:round;fill-rule:evenodd;"
d="M 27037999.000000,50025499.000000
25338001.000000,50025499.000000
25338001.000000,48025501.000000
27037999.000000,48025501.000000
Z" /> 
<path style="fill:#000000; fill-opacity:1.0; 
stroke:#000000; stroke-width:1.000000; stroke-opacity:1; 
stroke-linecap:round; stroke-linejoin:round;fill-rule:evenodd;"
d="M 27037999.000000,46025499.000000
25338001.000000,46025499.000000
25338001.000000,44025501.000000
27037999.000000,44025501.000000
Z" /> 
</g>
<g >
</g>
<g style="fill:#000000; fill-opacity:1.0; 
stroke:#000000; stroke-width:1.000000; stroke-opacity:1; 
stroke-linecap:round; stroke-linejoin:round;">
<path style="fill:#000000; fill-opacity:1.0; 
stroke:#000000; stroke-width:1.000000; stroke-opacity:1; 
stroke-linecap:round; stroke-linejoin:round;fill-rule:evenodd;"
d="M 17092001.000000,42033499.000000
17092001.000000,40333501.000000
19091999.000000,40333501.000000
19091999.000000,42033499.000000
Z" /> 
<path style="fill:#000000; fill-opacity:1.0; 
stroke:#000000; stroke-width:1.000000; stroke-opacity:1; 
stroke-linecap:round; stroke-linejoin:round;fill-rule:evenodd;"
d="M 21092001.000000,42033499.000000
21092001.000000,40333501.000000
23091999.000000,40333501.000000
23091999.000000,42033499.000000
Z" /> 
</g>
<g >
</g>
<g style="fill:#000000; fill-opacity:1.0; 
stroke:#000000; stroke-width:1.000000; stroke-opacity:1; 
stroke-linecap:round; stroke-linejoin:round;">
<circle cx="38126000.000000" cy="13243500.000000" r="850000.000000" /> 
</g>
<g style="fill:#000000; fill-opacity:1.0; 
stroke:#000000; stroke-width:21200.000000; stroke-opacity:1; 
stroke-linecap:round; stroke-linejoin:round;">
</g>
<g style="fill:#000000; fill-opacity:1.0; 
stroke:#000000; stroke-width:1.000000; stroke-opacity:1; 
stroke-linecap:round; stroke-linejoin:round;">
<circle cx="35586000.000000" cy="13243500.000000" r="850000.000000" /> 
<circle cx="33046000.000000" cy="13243500.000000" r="850000.000000" /> 
<circle cx="30506000.000000" cy="13243500.000000" r="850000.000000" /> 
<circle cx="27966000.000000" cy="13243500.000000" r="850000.000000" /> 
<circle cx="25426000.000000" cy="13243500.000000" r="850000.000000" /> 
</g>
<g >
</g>
<g style="fill:#000000; fill-opacity:1.0; 
stroke:#000000; stroke-width:1.000000; stroke-opacity:1; 
stroke-linecap:round; stroke-linejoin:round;">
<circle cx="21108000.000000" cy="53375500.000000" r="850000.000000" /> 
<circle cx="21108000.000000" cy="55915500.000000" r="850000.000000" /> 
<circle cx="21108000.000000" cy="58455500.000000" r="850000.000000" /> 
<circle cx="21108000.000000" cy="60995500.000000" r="850000.000000" /> 
</g>
<g >
</g>
<g style="fill:#000000; fill-opacity:1.0; 
stroke:#000000; stroke-width:1.000000; stroke-opacity:1; 
stroke-linecap:round; stroke-linejoin:round;">
<path style="fill:#000000; fill-opacity:1.0; 
stroke:#000000; stroke-width:1.000000; stroke-opacity:1; 
stroke-linecap:round; stroke-linejoin:round;fill-rule:evenodd;"
d="M 28014001.000000,42033499.000000
28014001.000000,40333501.000000
30013999.000000,40333501.000000
30013999.000000,42033499.000000
Z" /> 
<path style="fill:#000000; fill-opacity:1.0; 
stroke:#000000; stroke-width:1.000000; stroke-opacity:1; 
stroke-linecap:round; stroke-linejoin:round;fill-rule:evenodd;"
d="M 32014001.000000,42033499.000000
32014001.000000,40333501.000000
34013999.000000,40333501.000000
34013999.000000,42033499.000000
Z" /> 
</g>
<g >
</g>
<g style="fill:#000000; fill-opacity:1.0; 
stroke:#000000; stroke-width:1.000000; stroke-opacity:1; 
stroke-linecap:round; stroke-linejoin:round;">
<path style="fill:#000000; fill-opacity:1.0; 
stroke:#000000; stroke-width:1.000000; stroke-opacity:1; 
stroke-linecap:round; stroke-linejoin:round;fill-rule:evenodd;"
d="M 39290000.000000,64955500.000000
39278582.000000,65012903.000000
39246066.000000,65061566.000000
39197403.000000,65094082.000000
39140000.000000,65105500.000000
37490000.000000,65105500.000000
37432597.000000,65094082.000000
37383934.000000,65061566.000000
37351418.000000,65012903.000000
37340000.000000,64955500.000000
37340000.000000,64655500.000000
37351418.000000,64598097.000000
37383934.000000,64549434.000000
37432597.000000,64516918.000000
37490000.000000,64505500.000000
39140000.000000,64505500.000000
39197403.000000,64516918.000000
39246066.000000,64549434.000000
39278582.000000,64598097.000000
39290000.000000,64655500.000000
Z" /> 
<path style="fill:#000000; fill-opacity:1.0; 
stroke:#000000; stroke-width:1.000000; stroke-opacity:1; 
stroke-linecap:round; stroke-linejoin:round;fill-rule:evenodd;"
d="M 39290000.000000,63685500.000000
39278582.000000,63742903.000000
39246066.000000,63791566.000000
39197403.000000,63824082.000000
39140000.000000,63835500.000000
37490000.000000,63835500.000000
37432597.000000,63824082.000000
37383934.000000,63791566.000000
37351418.000000,63742903.000000
37340000.000000,63685500.000000
37340000.000000,63385500.000000
37351418.000000,63328097.000000
37383934.000000,63279434.000000
37432597.000000,63246918.000000
37490000.000000,63235500.000000
39140000.000000,63235500.000000
39197403.000000,63246918.000000
39246066.000000,63279434.000000
39278582.000000,63328097.000000
39290000.000000,63385500.000000
Z" /> 
<path style="fill:#000000; fill-opacity:1.0; 
stroke:#000000; stroke-width:1.000000; stroke-opacity:1; 
stroke-linecap:round; stroke-linejoin:round;fill-rule:evenodd;"
d="M 39290000.000000,62415500.000000
39278582.000000,62472903.000000
39246066.000000,62521566.000000
39197403.000000,62554082.000000
39140000.000000,62565500.000000
37490000.000000,62565500.000000
37432597.000000,62554082.000000
37383934.000000,62521566.000000
37351418.000000,62472903.000000
37340000.000000,62415500.000000
37340000.000000,62115500.000000
37351418.000000,62058097.000000
37383934.000000,62009434.000000
37432597.000000,61976918.000000
37490000.000000,61965500.000000
39140000.000000,61965500.000000
39197403.000000,61976918.000000
39246066.000000,62009434.000000
39278582.000000,62058097.000000
39290000.000000,62115500.000000
Z" /> 
<path style="fill:#000000; fill-opacity:1.0; 
stroke:#000000; stroke-width:1.000000; stroke-opacity:1; 
stroke-linecap:round; stroke-linejoin:round;fill-rule:evenodd;"
d="M 39290000.000000,61145500.000000
39278582.000000,61202903.000000
39246066.000000,61251566.000000
39197403.000000,61284082.000000
39140000.000000,61295500.000000
37490000.000000,61295500.000000
37432597.000000,61284082.000000
37383934.000000,61251566.000000
37351418.000000,61202903.000000
37340000.000000,61145500.000000
37340000.000000,60845500.000000
37351418.000000,60788097.000000
37383934.000000,60739434.000000
37432597.000000,60706918.000000
37490000.000000,60695500.000000
39140000.000000,60695500.000000
39197403.000000,60706918.000000
39246066.000000,60739434.000000
39278582.000000,60788097.000000
39290000.000000,60845500.000000
Z" /> 
<path style="fill:#000000; fill-opacity:1.0; 
stroke:#000000; stroke-width:1.000000; stroke-opacity:1; 
stroke-linecap:round; stroke-linejoin:round;fill-rule:evenodd;"
d="M 39290000.000000,59875500.000000
39278582.000000,59932903.000000
39246066.000000,59981566.000000
39197403.000000,60014082.000000
39140000.000000,60025500.000000
37490000.000000,60025500.000000
37432597.000000,60014082.000000
37383934.000000,59981566.000000
37351418.000000,59932903.000000
37340000.000000,59875500.000000
37340000.000000,59575500.000000
37351418.000000,59518097.000000
37383934.000000,59469434.000000
37432597.000000,59436918.000000
37490000.000000,59425500.000000
39140000.000000,59425500.000000
39197403.000000,59436918.000000
39246066.000000,59469434.000000
39278582.000000,59518097.000000
39290000.000000,59575500.000000
Z" /> 
<path style="fill:#000000; fill-opacity:1.0; 
stroke:#000000; stroke-width:1.000000; stroke-opacity:1; 
stroke-linecap:round; stroke-linejoin:round;fill-rule:evenodd;"
d="M 39290000.000000,58605500.000000
39278582.000000,58662903.000000
39246066.000000,58711566.000000
39197403.000000,58744082.000000
39140000.000000,58755500.000000
37490000.000000,58755500.000000
37432597.000000,58744082.000000
37383934.000000,58711566.000000
37351418.000000,58662903.000000
37340000.000000,58605500.000000
37340000.000000,58305500.000000
37351418.000000,58248097.000000
37383934.000000,58199434.000000
37432597.000000,58166918.000000
37490000.000000,58155500.000000
39140000.000000,58155500.000000
39197403.000000,58166918.000000
39246066.000000,58199434.000000
39278582.000000,58248097.000000
39290000.000000,58305500.000000
Z" /> 
<path style="fill:#000000; fill-opacity:1.0; 
stroke:#000000; stroke-width:1.000000; stroke-opacity:1; 
stroke-linecap:round; stroke-linejoin:round;fill-rule:evenodd;"
d="M 39290000.000000,57335500.000000
39278582.000000,57392903.000000
39246066.000000,57441566.000000
39197403.000000,57474082.000000
39140000.000000,57485500.000000
37490000.000000,57485500.000000
37432597.000000,57474082.000000
37383934.000000,57441566.000000
37351418.000000,57392903.000000
37340000.000000,57335500.000000
37340000.000000,57035500.000000
37351418.000000,56978097.000000
37383934.000000,56929434.000000
37432597.000000,56896918.000000
37490000.000000,56885500.000000
39140000.000000,56885500.000000
39197403.000000,56896918.000000
39246066.000000,56929434.000000
39278582.000000,56978097.000000
39290000.000000,57035500.000000
Z" /> 
<path style="fill:#000000; fill-opacity:1.0; 
stroke:#000000; stroke-width:1.000000; stroke-opacity:1; 
stroke-linecap:round; stroke-linejoin:round;fill-rule:evenodd;"
d="M 34340000.000000,57335500.000000
34328582.000000,57392903.000000
34296066.000000,57441566.000000
34247403.000000,57474082.000000
34190000.000000,57485500.000000
32540000.000000,57485500.000000
32482597.000000,57474082.000000
32433934.000000,57441566.000000
32401418.000000,57392903.000000
32390000.000000,57335500.000000
32390000.000000,57035500.000000
32401418.000000,56978097.000000
32433934.000000,56929434.000000
32482597.000000,56896918.000000
32540000.000000,56885500.000000
34190000.000000,56885500.000000
34247403.000000,56896918.000000
34296066.000000,56929434.000000
34328582.000000,56978097.000000
34340000.000000,57035500.000000
Z" /> 
<path style="fill:#000000; fill-opacity:1.0; 
stroke:#000000; stroke-width:1.000000; stroke-opacity:1; 
stroke-linecap:round; stroke-linejoin:round;fill-rule:evenodd;"
d="M 34340000.000000,58605500.000000
34328582.000000,58662903.000000
34296066.000000,58711566.000000
34247403.000000,58744082.000000
34190000.000000,58755500.000000
32540000.000000,58755500.000000
32482597.000000,58744082.000000
32433934.000000,58711566.000000
32401418.000000,58662903.000000
32390000.000000,58605500.000000
32390000.000000,58305500.000000
32401418.000000,58248097.000000
32433934.000000,58199434.000000
32482597.000000,58166918.000000
32540000.000000,58155500.000000
34190000.000000,58155500.000000
34247403.000000,58166918.000000
34296066.000000,58199434.000000
34328582.000000,58248097.000000
34340000.000000,58305500.000000
Z" /> 
<path style="fill:#000000; fill-opacity:1.0; 
stroke:#000000; stroke-width:1.000000; stroke-opacity:1; 
stroke-linecap:round; stroke-linejoin:round;fill-rule:evenodd;"
d="M 34340000.000000,59875500.000000
34328582.000000,59932903.000000
34296066.000000,59981566.000000
34247403.000000,60014082.000000
34190000.000000,60025500.000000
32540000.000000,60025500.000000
32482597.000000,60014082.000000
32433934.000000,59981566.000000
32401418.000000,59932903.000000
32390000.000000,59875500.000000
32390000.000000,59575500.000000
32401418.000000,59518097.000000
32433934.000000,59469434.000000
32482597.000000,59436918.000000
32540000.000000,59425500.000000
34190000.000000,59425500.000000
34247403.000000,59436918.000000
34296066.000000,59469434.000000
34328582.000000,59518097.000000
34340000.000000,59575500.000000
Z" /> 
<path style="fill:#000000; fill-opacity:1.0; 
stroke:#000000; stroke-width:1.000000; stroke-opacity:1; 
stroke-linecap:round; stroke-linejoin:round;fill-rule:evenodd;"
d="M 34340000.000000,61145500.000000
34328582.000000,61202903.000000
34296066.000000,61251566.000000
34247403.000000,61284082.000000
34190000.000000,61295500.000000
32540000.000000,61295500.000000
32482597.000000,61284082.000000
32433934.000000,61251566.000000
32401418.000000,61202903.000000
32390000.000000,61145500.000000
32390000.000000,60845500.000000
32401418.000000,60788097.000000
32433934.000000,60739434.000000
32482597.000000,60706918.000000
32540000.000000,60695500.000000
34190000.000000,60695500.000000
34247403.000000,60706918.000000
34296066.000000,60739434.000000
34328582.000000,60788097.000000
34340000.000000,60845500.000000
Z" /> 
<path style="fill:#000000; fill-opacity:1.0; 
stroke:#000000; stroke-width:1.000000; stroke-opacity:1; 
stroke-linecap:round; stroke-linejoin:round;fill-rule:evenodd;"
d="M 34340000.000000,62415500.000000
34328582.000000,62472903.000000
34296066.000000,62521566.000000
34247403.000000,62554082.000000
34190000.000000,62565500.000000
32540000.000000,62565500.000000
32482597.000000,62554082.000000
32433934.000000,62521566.000000
32401418.000000,62472903.000000
32390000.000000,62415500.000000
32390000.000000,62115500.000000
32401418.000000,62058097.000000
32433934.000000,62009434.000000
32482597.000000,61976918.000000
32540000.000000,61965500.000000
34190000.000000,61965500.000000
34247403.000000,61976918.000000
34296066.000000,62009434.000000
34328582.000000,62058097.000000
34340000.000000,62115500.000000
Z" /> 
<path style="fill:#000000; fill-opacity:1.0; 
stroke:#000000; stroke-width:1.000000; stroke-opacity:1; 
stroke-linecap:round; stroke-linejoin:round;fill-rule:evenodd;"
d="M 34340000.000000,63685500.000000
34328582.000000,63742903.000000
34296066.000000,63791566.000000
34247403.000000,63824082.000000
34190000.000000,63835500.000000
32540000.000000,63835500.000000
32482597.000000,63824082.000000
32433934.000000,63791566.000000
32401418.000000,63742903.000000
32390000.000000,63685500.000000
32390000.000000,63385500.000000
32401418.000000,63328097.000000
32433934.000000,63279434.000000
32482597.000000,63246918.000000
32540000.000000,63235500.000000
34190000.000000,63235500.000000
34247403.000000,63246918.000000
34296066.000000,63279434.000000
34328582.000000,63328097.000000
34340000.000000,63385500.000000
Z" /> 
<path style="fill:#000000; fill-opacity:1.0; 
stroke:#000000; stroke-width:1.000000; stroke-opacity:1; 
stroke-linecap:round; stroke-linejoin:round;fill-rule:evenodd;"
d="M 34340000.000000,64955500.000000
34328582.000000,65012903.000000
34296066.000000,65061566.000000
34247403.000000,65094082.000000
34190000.000000,65105500.000000
32540000.000000,65105500.000000
32482597.000000,65094082.000000
32433934.000000,65061566.000000
32401418.000000,65012903.000000
32390000.000000,64955500.000000
32390000.000000,64655500.000000
32401418.000000,64598097.000000
32433934.000000,64549434.000000
32482597.000000,64516918.000000
32540000.000000,64505500.000000
34190000.000000,64505500.000000
34247403.000000,64516918.000000
34296066.000000,64549434.000000
34328582.000000,64598097.000000
34340000.000000,64655500.000000
Z" /> 
</g>
<g >
</g>
<g style="fill:#000000; fill-opacity:1.0; 
stroke:#000000; stroke-width:1.000000; stroke-opacity:1; 
stroke-linecap:round; stroke-linejoin:round;">
<path style="fill:#000000; fill-opacity:1.0; 
stroke:#000000; stroke-width:1.000000; stroke-opacity:1; 
stroke-linecap:round; stroke-linejoin:round;fill-rule:evenodd;"
d="M 39093999.000000,69289501.000000
39093999.000000,70989499.000000
37094001.000000,70989499.000000
37094001.000000,69289501.000000
Z" /> 
<path style="fill:#000000; fill-opacity:1.0; 
stroke:#000000; stroke-width:1.000000; stroke-opacity:1; 
stroke-linecap:round; stroke-linejoin:round;fill-rule:evenodd;"
d="M 35093999.000000,69289501.000000
35093999.000000,70989499.000000
33094001.000000,70989499.000000
33094001.000000,69289501.000000
Z" /> 
</g>
<g >
</g>
<g style="fill:#000000; fill-opacity:1.0; 
stroke:#000000; stroke-width:1.000000; stroke-opacity:1; 
stroke-linecap:round; stroke-linejoin:round;">
<circle cx="17552000.000000" cy="60995500.000000" r="850000.000000" /> 
<circle cx="17552000.000000" cy="58455500.000000" r="850000.000000" /> 
<circle cx="17552000.000000" cy="55915500.000000" r="850000.000000" /> 
<circle cx="17552000.000000" cy="53375500.000000" r="850000.000000" /> 
</g>
<g >
</g>
<g style="fill:#000000; fill-opacity:1.0; 
stroke:#000000; stroke-width:1.000000; stroke-opacity:1; 
stroke-linecap:round; stroke-linejoin:round;">
<path style="fill:#000000; fill-opacity:1.0; 
stroke:#000000; stroke-width:1.000000; stroke-opacity:1; 
stroke-linecap:round; stroke-linejoin:round;fill-rule:evenodd;"
d="M 42277999.000000,60693499.000000
40578001.000000,60693499.000000
40578001.000000,58693501.000000
42277999.000000,58693501.000000
Z" /> 
<path style="fill:#000000; fill-opacity:1.0; 
stroke:#000000; stroke-width:1.000000; stroke-opacity:1; 
stroke-linecap:round; stroke-linejoin:round;fill-rule:evenodd;"
d="M 42277999.000000,56693499.000000
40578001.000000,56693499.000000
40578001.000000,54693501.000000
42277999.000000,54693501.000000
Z" /> 
</g>
<g >
</g>
<g style="fill:#000000; fill-opacity:1.0; 
stroke:#000000; stroke-width:1.000000; stroke-opacity:1; 
stroke-linecap:round; stroke-linejoin:round;">
<circle cx="44476000.000000" cy="71663500.000000" r="850000.000000" /> 
<circle cx="47016000.000000" cy="71663500.000000" r="850000.000000" /> 
<circle cx="49556000.000000" cy="71663500.000000" r="850000.000000" /> 
</g>
<g >
</g>
<g style="fill:#000000; fill-opacity:1.0; 
stroke:#000000; stroke-width:1.000000; stroke-opacity:1; 
stroke-linecap:round; stroke-linejoin:round;">
<path style="fill:#000000; fill-opacity:1.0; 
stroke:#000000; stroke-width:1.000000; stroke-opacity:1; 
stroke-linecap:round; stroke-linejoin:round;fill-rule:evenodd;"
d="M 28014001.000000,26285499.000000
28014001.000000,24585501.000000
30013999.000000,24585501.000000
30013999.000000,26285499.000000
Z" /> 
<path style="fill:#000000; fill-opacity:1.0; 
stroke:#000000; stroke-width:1.000000; stroke-opacity:1; 
stroke-linecap:round; stroke-linejoin:round;fill-rule:evenodd;"
d="M 32014001.000000,26285499.000000
32014001.000000,24585501.000000
34013999.000000,24585501.000000
34013999.000000,26285499.000000
Z" /> 
</g>
<g >
</g>
<g style="fill:#000000; fill-opacity:1.0; 
stroke:#000000; stroke-width:1.000000; stroke-opacity:1; 
stroke-linecap:round; stroke-linejoin:round;">
<path style="fill:#000000; fill-opacity:1.0; 
stroke:#000000; stroke-width:1.000000; stroke-opacity:1; 
stroke-linecap:round; stroke-linejoin:round;fill-rule:evenodd;"
d="M 23091999.000000,44397501.000000
23091999.000000,46097499.000000
21092001.000000,46097499.000000
21092001.000000,44397501.000000
Z" /> 
<path style="fill:#000000; fill-opacity:1.0; 
stroke:#000000; stroke-width:1.000000; stroke-opacity:1; 
stroke-linecap:round; stroke-linejoin:round;fill-rule:evenodd;"
d="M 19091999.000000,44397501.000000
19091999.000000,46097499.000000
17092001.000000,46097499.000000
17092001.000000,44397501.000000
Z" /> 
</g>
<g >
</g>
<g style="fill:#000000; fill-opacity:1.0; 
stroke:#000000; stroke-width:1.000000; stroke-opacity:1; 
stroke-linecap:round; stroke-linejoin:round;">
<circle cx="13996000.000000" cy="60995500.000000" r="850000.000000" /> 
<circle cx="13996000.000000" cy="58455500.000000" r="850000.000000" /> 
<circle cx="13996000.000000" cy="55915500.000000" r="850000.000000" /> 
<circle cx="13996000.000000" cy="53375500.000000" r="850000.000000" /> 
</g>
<g >
</g>
<g style="fill:#000000; fill-opacity:1.0; 
stroke:#000000; stroke-width:1.000000; stroke-opacity:1; 
stroke-linecap:round; stroke-linejoin:round;">
<path style="fill:#000000; fill-opacity:1.0; 
stroke:#000000; stroke-width:1.000000; stroke-opacity:1; 
stroke-linecap:round; stroke-linejoin:round;fill-rule:evenodd;"
d="M 33720001.000000,44279501.000000
35419999.000000,44279501.000000
35419999.000000,46279499.000000
33720001.000000,46279499.000000
Z" /> 
<path style="fill:#000000; fill-opacity:1.0; 
stroke:#000000; stroke-width:1.000000; stroke-opacity:1; 
stroke-linecap:round; stroke-linejoin:round;fill-rule:evenodd;"
d="M 33720001.000000,48279501.000000
35419999.000000,48279501.000000
35419999.000000,50279499.000000
33720001.000000,50279499.000000
Z" /> 
</g>
<g >
</g>
<g >
</g>
<g style="fill:#000000; fill-opacity:1.0; 
stroke:#000000; stroke-width:1.000000; stroke-opacity:1; 
stroke-linecap:round; stroke-linejoin:round;">
</g>
<g style="fill:#000000; fill-opacity:1.0; 
stroke:#000000; stroke-width:800000.000000; stroke-opacity:1; 
stroke-linecap:round; stroke-linejoin:round;">
</g>
<g style="fill:#000000; fill-opacity:0.0; 
stroke:#000000; stroke-width:800000.000000; stroke-opacity:1; 
stroke-linecap:round; stroke-linejoin:round;">
<path d="M14924000 45247500
L18092000 45247500
" />
</g>
<g style="fill:#000000; fill-opacity:0.0; 
stroke:#000000; stroke-width:2000000.000000; stroke-opacity:1; 
stroke-linecap:round; stroke-linejoin:round;">
<path d="M27966000 13243500
L27966000 24387500
" />
<path d="M45492000 37881500
L45492000 42707500
" />
</g>
<g style="fill:#000000; fill-opacity:0.0; 
stroke:#000000; stroke-width:800000.000000; stroke-opacity:1; 
stroke-linecap:round; stroke-linejoin:round;">
<path d="M13996000 53375500
L13996000 64551500
" />
<path d="M13996000 64551500
L16068000 66623500
" />
</g>
<g style="fill:#000000; fill-opacity:0.0; 
stroke:#000000; stroke-width:2000000.000000; stroke-opacity:1; 
stroke-linecap:round; stroke-linejoin:round;">
<path d="M45492000 42707500
L45492000 48803500
" />
</g>
<g style="fill:#000000; fill-opacity:0.0; 
stroke:#000000; stroke-width:800000.000000; stroke-opacity:1; 
stroke-linecap:round; stroke-linejoin:round;">
<path d="M34094000 70139500
L33365000 69410500
" />
<path d="M10396000 49775500
L13996000 53375500
" />
<path d="M18140480 74219980
L35856480 74219980
" />
<path d="M45492000 48803500
L46000000 48803500
" />
</g>
<g style="fill:#000000; fill-opacity:0.0; 
stroke:#000000; stroke-width:2000000.000000; stroke-opacity:1; 
stroke-linecap:round; stroke-linejoin:round;">
<path d="M45492000 42707500
L45492000 40385500
" />
<path d="M27966000 24387500
L29014000 25435500
" />
</g>
<g style="fill:#000000; fill-opacity:0.0; 
stroke:#000000; stroke-width:800000.000000; stroke-opacity:1; 
stroke-linecap:round; stroke-linejoin:round;">
<path d="M47016000 72171500
L48540000 73695500
" />
<path d="M44459520 74219980
L47016000 71663500
" />
<path d="M48540000 73695500
L51588000 73695500
" />
<path d="M47016000 71663500
L47016000 72171500
" />
<path d="M16068000 70647500
L16068000 72147500
" />
<path d="M34094000 70139500
L34094000 72457500
" />
<path d="M34094000 72457500
L35856480 74219980
" />
<path d="M53295520 71987980
L53295520 57704642
" />
<path d="M46762000 48803500
L45492000 48803500
" />
</g>
<g style="fill:#000000; fill-opacity:0.0; 
stroke:#000000; stroke-width:2000000.000000; stroke-opacity:1; 
stroke-linecap:round; stroke-linejoin:round;">
<path d="M45492000 40385500
L52396000 33481500
" />
</g>
<g style="fill:#000000; fill-opacity:0.0; 
stroke:#000000; stroke-width:800000.000000; stroke-opacity:1; 
stroke-linecap:round; stroke-linejoin:round;">
<path d="M33365000 69410500
L33365000 64805500
" />
<path d="M47778000 49819500
L46762000 48803500
" />
<path d="M47778000 52187122
L47778000 49819500
" />
</g>
<g style="fill:#000000; fill-opacity:0.0; 
stroke:#000000; stroke-width:2000000.000000; stroke-opacity:1; 
stroke-linecap:round; stroke-linejoin:round;">
<path d="M33014000 25435500
L33046000 25435500
" />
<path d="M33046000 25435500
L45492000 37881500
" />
</g>
<g style="fill:#000000; fill-opacity:0.0; 
stroke:#000000; stroke-width:800000.000000; stroke-opacity:1; 
stroke-linecap:round; stroke-linejoin:round;">
<path d="M53295520 57704642
L47778000 52187122
" />
<path d="M35856480 74219980
L44459520 74219980
" />
<path d="M16068000 72147500
L18140480 74219980
" />
<path d="M10396000 49775500
L14924000 45247500
" />
<path d="M16068000 66623500
L16068000 70647500
" />
<path d="M10396000 33481500
L10396000 49775500
" />
<path d="M51588000 73695500
L53295520 71987980
" />
<path d="M25426000 19085500
L22886000 21625500
" />
<path d="M17552000 60995500
L17552000 51597500
" />
<path d="M42190000 52105500
L42190000 49311500
" />
<path d="M51842000 66329500
L51842000 58455500
" />
<path d="M20292489 48749989
L20346000 48803500
" />
<path d="M49556000 68615500
L51842000 66329500
" />
<path d="M31808000 47279500
L31776000 47311500
" />
<path d="M20292489 39713011
L20292489 48749989
" />
<path d="M42190000 49311500
L40158000 47279500
" />
<path d="M43968000 53883500
L42190000 52105500
" />
<path d="M38315000 69918500
L38094000 70139500
" />
<path d="M49048000 69123500
L49556000 68615500
" />
<path d="M51842000 58455500
L47270000 53883500
" />
<path d="M49556000 71663500
L49556000 68615500
" />
<path d="M45492000 53883500
L43968000 53883500
" />
<path d="M22886000 21625500
L22886000 37119500
" />
<path d="M28696000 47025500
L28982000 47311500
" />
<path d="M18568000 65313500
L17552000 64297500
" />
<path d="M38094000 70139500
L40920000 70139500
" />
<path d="M22886000 37119500
L20292489 39713011
" />
<path d="M22124000 47025500
L28696000 47025500
" />
<path d="M20346000 48803500
L22124000 47025500
" />
<path d="M25426000 13243500
L25426000 19085500
" />
<path d="M45238000 53883500
L45492000 53883500
" />
<path d="M28653022 47279500
L32104978 47279500
" />
<path d="M41936000 69123500
L49048000 69123500
" />
<path d="M40158000 47279500
L31808000 47279500
" />
<path d="M17552000 51597500
L20346000 48803500
" />
<path d="M18568000 70647500
L18568000 65313500
" />
<path d="M47270000 53883500
L45492000 53883500
" />
<path d="M17552000 64297500
L17552000 60995500
" />
<path d="M38315000 64805500
L38315000 69918500
" />
<path d="M40920000 70139500
L41936000 69123500
" />
</g>
<g style="fill:#000000; fill-opacity:0.0; 
stroke:#000000; stroke-width:400000.000000; stroke-opacity:1; 
stroke-linecap:round; stroke-linejoin:round;">
<path d="M44621031 57294469
L45492000 56423500
" />
<path d="M38315000 57185500
L38423969 57294469
" />
<path d="M38423969 57294469
L44621031 57294469
" />
<path d="M38315000 58455500
L39079981 58455500
" />
<path d="M39079981 58455500
L39441492 58093989
" />
<path d="M39441492 58093989
L44622489 58093989
" />
<path d="M44622489 58093989
L45492000 58963500
" />
<path d="M37330978 72425500
L36094000 71188522
" />
<path d="M44476000 71663500
L43714000 72425500
" />
<path d="M36094000 71188522
L36094000 67345500
" />
<path d="M35332000 59979500
L35078000 59725500
" />
<path d="M35078000 59725500
L33365000 59725500
" />
<path d="M43714000 72425500
L37330978 72425500
" />
<path d="M36094000 67345500
L35332000 66583500
" />
<path d="M35332000 66583500
L35332000 59979500
" />
<path d="M32600019 59725500
L33365000 59725500
" />
<path d="M26188000 49025500
L26725500 49025500
" />
<path d="M29851511 57039011
L31268000 58455500
" />
<path d="M30613511 42853989
L28442000 45025500
" />
<path d="M29851511 52151511
L29851511 57039011
" />
<path d="M30506000 13243500
L30613511 13351011
" />
<path d="M26725500 49025500
L29851511 52151511
" />
<path d="M31268000 58455500
L33365000 58455500
" />
<path d="M30613511 13351011
L30613511 42853989
" />
<path d="M28442000 45025500
L26188000 45025500
" />
<path d="M31414489 43139989
L33554000 45279500
" />
<path d="M33554000 45279500
L34570000 45279500
" />
<path d="M33046000 13243500
L33046000 17053500
" />
<path d="M31776000 51282000
L33583500 51282000
" />
<path d="M30652489 55553989
L32284000 57185500
" />
<path d="M31413031 39732531
L31414489 39733989
" />
<path d="M33583500 51282000
L34570000 50295500
" />
<path d="M32284000 57185500
L33365000 57185500
" />
<path d="M31414489 39733989
L31414489 43139989
" />
<path d="M33046000 17053500
L31413031 18686469
" />
<path d="M31776000 51282000
L30652489 52405511
" />
<path d="M30652489 52405511
L30652489 55553989
" />
<path d="M31413031 18686469
L31413031 39732531
" />
<path d="M33365000 60995500
L27204000 60995500
" />
<path d="M22124000 55915500
L21108000 55915500
" />
<path d="M27204000 60995500
L22124000 55915500
" />
<path d="M21108000 58455500
L22378000 58455500
" />
<path d="M26188000 62265500
L33365000 62265500
" />
<path d="M22378000 58455500
L26188000 62265500
" />
<path d="M21108000 60995500
L23648000 63535500
" />
<path d="M23648000 63535500
L33365000 63535500
" />
<path d="M33652000 54391500
L36348000 57087500
" />
<path d="M21108000 53375500
L22124000 54391500
" />
<path d="M36348000 63027500
L36856000 63535500
" />
<path d="M36856000 63535500
L38315000 63535500
" />
<path d="M22124000 54391500
L28252000 54391500
" />
<path d="M36348000 57087500
L36348000 63027500
" />
<path d="M32252000 54391500
L33652000 54391500
" />
</g>
<g style="fill:#000000; fill-opacity:0.0; 
stroke:#000000; stroke-width:2000000.000000; stroke-opacity:1; 
stroke-linecap:round; stroke-linejoin:round;">
<path d="M35586000 16545500
L45492000 26451500
" />
<path d="M35586000 13243500
L35586000 16545500
" />
<path d="M45492000 26451500
L50020000 26451500
" />
<path d="M38126000 10703500
L38126000 13243500
" />
<path d="M15542000 13475500
L19330000 9687500
" />
<path d="M18822000 18809500
L15542000 15529500
" />
<path d="M13488000 15529500
L15542000 13475500
" />
<path d="M10440000 25645500
L10440000 17031500
" />
<path d="M10440000 17031500
L11942000 15529500
" />
<path d="M18092000 41183500
L18092000 39368595
" />
<path d="M11942000 15529500
L13488000 15529500
" />
<path d="M37110000 9687500
L38126000 10703500
" />
<path d="M18822000 38638595
L18822000 18809500
" />
<path d="M15542000 15529500
L15542000 13475500
" />
<path d="M18092000 39368595
L18822000 38638595
" />
<path d="M19330000 9687500
L37110000 9687500
" />
</g>
<g style="fill:#000000; fill-opacity:0.0; 
stroke:#000000; stroke-width:800000.000000; stroke-opacity:1; 
stroke-linecap:round; stroke-linejoin:round;">
<path d="M38315000 62265500
L40656000 62265500
" />
<path d="M22092000 41183500
L29014000 41183500
" />
<path d="M38634000 49279500
L38634000 51343500
" />
<path d="M22092000 45247500
L22092000 41183500
" />
<path d="M38634000 51343500
L41428000 54137500
" />
<path d="M34538000 41183500
L38634000 45279500
" />
<path d="M41428000 61493500
L41428000 59693500
" />
<path d="M41428000 54137500
L41428000 55693500
" />
<path d="M40656000 62265500
L41428000 61493500
" />
<path d="M33014000 41183500
L34538000 41183500
" />
</g>
<g >
</g>
</g>
<g style="fill:#FFFFFF; fill-opacity:0.0; 
stroke:#FFFFFF; stroke-width:800000.000000; stroke-opacity:1; 
stroke-linecap:round; stroke-linejoin:round;">
</g>
<g style="fill:#FFFFFF; fill-opacity:1.0; 
stroke:#FFFFFF; stroke-width:1.000000; stroke-opacity:1; 
stroke-linecap:round; stroke-linejoin:round;">
<circle cx="45492000.000000" cy="48803500.000000" r="500000.000000" /> 
</g>
<g style="fill:#FFFFFF; fill-opacity:1.0; 
stroke:#FFFFFF; stroke-width:21200.000000; stroke-opacity:1; 
stroke-linecap:round; stroke-linejoin:round;">
</g>
<g style="fill:#FFFFFF; fill-opacity:1.0; 
stroke:#FFFFFF; stroke-width:1.000000; stroke-opacity:1; 
stroke-linecap:round; stroke-linejoin:round;">
<circle cx="45492000.000000" cy="51343500.000000" r="500000.000000" /> 
</g>
<g style="fill:#FFFFFF; fill-opacity:1.0; 
stroke:#FFFFFF; stroke-width:21200.000000; stroke-opacity:1; 
stroke-linecap:round; stroke-linejoin:round;">
</g>
<g style="fill:#FFFFFF; fill-opacity:1.0; 
stroke:#FFFFFF; stroke-width:1.000000; stroke-opacity:1; 
stroke-linecap:round; stroke-linejoin:round;">
<circle cx="45492000.000000" cy="53883500.000000" r="500000.000000" /> 
</g>
<g style="fill:#FFFFFF; fill-opacity:1.0; 
stroke:#FFFFFF; stroke-width:21200.000000; stroke-opacity:1; 
stroke-linecap:round; stroke-linejoin:round;">
</g>
<g style="fill:#FFFFFF; fill-opacity:1.0; 
stroke:#FFFFFF; stroke-width:1.000000; stroke-opacity:1; 
stroke-linecap:round; stroke-linejoin:round;">
<circle cx="45492000.000000" cy="56423500.000000" r="500000.000000" /> 
</g>
<g style="fill:#FFFFFF; fill-opacity:1.0; 
stroke:#FFFFFF; stroke-width:21200.000000; stroke-opacity:1; 
stroke-linecap:round; stroke-linejoin:round;">
</g>
<g style="fill:#FFFFFF; fill-opacity:1.0; 
stroke:#FFFFFF; stroke-width:1.000000; stroke-opacity:1; 
stroke-linecap:round; stroke-linejoin:round;">
<circle cx="45492000.000000" cy="58963500.000000" r="500000.000000" /> 
</g>
<g style="fill:#FFFFFF; fill-opacity:1.0; 
stroke:#FFFFFF; stroke-width:21200.000000; stroke-opacity:1; 
stroke-linecap:round; stroke-linejoin:round;">
</g>
<g style="fill:#FFFFFF; fill-opacity:1.0; 
stroke:#FFFFFF; stroke-width:1.000000; stroke-opacity:1; 
stroke-linecap:round; stroke-linejoin:round;">
<circle cx="45492000.000000" cy="61503500.000000" r="500000.000000" /> 
</g>
<g style="fill:#FFFFFF; fill-opacity:1.0; 
stroke:#FFFFFF; stroke-width:21200.000000; stroke-opacity:1; 
stroke-linecap:round; stroke-linejoin:round;">
</g>
<g style="fill:#FFFFFF; fill-opacity:1.0; 
stroke:#FFFFFF; stroke-width:1.000000; stroke-opacity:1; 
stroke-linecap:round; stroke-linejoin:round;">
<circle cx="52396000.000000" cy="26281500.000000" r="2250000.000000" /> 
</g>
<g style="fill:#FFFFFF; fill-opacity:1.0; 
stroke:#FFFFFF; stroke-width:21200.000000; stroke-opacity:1; 
stroke-linecap:round; stroke-linejoin:round;">
</g>
<g style="fill:#FFFFFF; fill-opacity:1.0; 
stroke:#FFFFFF; stroke-width:1.000000; stroke-opacity:1; 
stroke-linecap:round; stroke-linejoin:round;">
<circle cx="52396000.000000" cy="33481500.000000" r="2250000.000000" /> 
</g>
<g style="fill:#FFFFFF; fill-opacity:1.0; 
stroke:#FFFFFF; stroke-width:21200.000000; stroke-opacity:1; 
stroke-linecap:round; stroke-linejoin:round;">
</g>
<g style="fill:#FFFFFF; fill-opacity:1.0; 
stroke:#FFFFFF; stroke-width:1.000000; stroke-opacity:1; 
stroke-linecap:round; stroke-linejoin:round;">
<circle cx="18568000.000000" cy="70647500.000000" r="500000.000000" /> 
</g>
<g style="fill:#FFFFFF; fill-opacity:1.0; 
stroke:#FFFFFF; stroke-width:21200.000000; stroke-opacity:1; 
stroke-linecap:round; stroke-linejoin:round;">
</g>
<g style="fill:#FFFFFF; fill-opacity:1.0; 
stroke:#FFFFFF; stroke-width:1.000000; stroke-opacity:1; 
stroke-linecap:round; stroke-linejoin:round;">
<circle cx="16068000.000000" cy="70647500.000000" r="500000.000000" /> 
</g>
<g style="fill:#FFFFFF; fill-opacity:1.0; 
stroke:#FFFFFF; stroke-width:21200.000000; stroke-opacity:1; 
stroke-linecap:round; stroke-linejoin:round;">
</g>
<g style="fill:#FFFFFF; fill-opacity:1.0; 
stroke:#FFFFFF; stroke-width:1.000000; stroke-opacity:1; 
stroke-linecap:round; stroke-linejoin:round;">
<circle cx="10396000.000000" cy="26281500.000000" r="2250000.000000" /> 
</g>
<g style="fill:#FFFFFF; fill-opacity:1.0; 
stroke:#FFFFFF; stroke-width:21200.000000; stroke-opacity:1; 
stroke-linecap:round; stroke-linejoin:round;">
</g>
<g style="fill:#FFFFFF; fill-opacity:1.0; 
stroke:#FFFFFF; stroke-width:1.000000; stroke-opacity:1; 
stroke-linecap:round; stroke-linejoin:round;">
<circle cx="10396000.000000" cy="33481500.000000" r="2250000.000000" /> 
</g>
<g style="fill:#FFFFFF; fill-opacity:1.0; 
stroke:#FFFFFF; stroke-width:21200.000000; stroke-opacity:1; 
stroke-linecap:round; stroke-linejoin:round;">
</g>
<g style="fill:#FFFFFF; fill-opacity:1.0; 
stroke:#FFFFFF; stroke-width:1.000000; stroke-opacity:1; 
stroke-linecap:round; stroke-linejoin:round;">
<circle cx="38126000.000000" cy="13243500.000000" r="500000.000000" /> 
</g>
<g style="fill:#FFFFFF; fill-opacity:1.0; 
stroke:#FFFFFF; stroke-width:21200.000000; stroke-opacity:1; 
stroke-linecap:round; stroke-linejoin:round;">
</g>
<g style="fill:#FFFFFF; fill-opacity:1.0; 
stroke:#FFFFFF; stroke-width:1.000000; stroke-opacity:1; 
stroke-linecap:round; stroke-linejoin:round;">
<circle cx="35586000.000000" cy="13243500.000000" r="500000.000000" /> 
</g>
<g style="fill:#FFFFFF; fill-opacity:1.0; 
stroke:#FFFFFF; stroke-width:21200.000000; stroke-opacity:1; 
stroke-linecap:round; stroke-linejoin:round;">
</g>
<g style="fill:#FFFFFF; fill-opacity:1.0; 
stroke:#FFFFFF; stroke-width:1.000000; stroke-opacity:1; 
stroke-linecap:round; stroke-linejoin:round;">
<circle cx="33046000.000000" cy="13243500.000000" r="500000.000000" /> 
</g>
<g style="fill:#FFFFFF; fill-opacity:1.0; 
stroke:#FFFFFF; stroke-width:21200.000000; stroke-opacity:1; 
stroke-linecap:round; stroke-linejoin:round;">
</g>
<g style="fill:#FFFFFF; fill-opacity:1.0; 
stroke:#FFFFFF; stroke-width:1.000000; stroke-opacity:1; 
stroke-linecap:round; stroke-linejoin:round;">
<circle cx="30506000.000000" cy="13243500.000000" r="500000.000000" /> 
</g>
<g style="fill:#FFFFFF; fill-opacity:1.0; 
stroke:#FFFFFF; stroke-width:21200.000000; stroke-opacity:1; 
stroke-linecap:round; stroke-linejoin:round;">
</g>
<g style="fill:#FFFFFF; fill-opacity:1.0; 
stroke:#FFFFFF; stroke-width:1.000000; stroke-opacity:1; 
stroke-linecap:round; stroke-linejoin:round;">
<circle cx="27966000.000000" cy="13243500.000000" r="500000.000000" /> 
</g>
<g style="fill:#FFFFFF; fill-opacity:1.0; 
stroke:#FFFFFF; stroke-width:21200.000000; stroke-opacity:1; 
stroke-linecap:round; stroke-linejoin:round;">
</g>
<g style="fill:#FFFFFF; fill-opacity:1.0; 
stroke:#FFFFFF; stroke-width:1.000000; stroke-opacity:1; 
stroke-linecap:round; stroke-linejoin:round;">
<circle cx="25426000.000000" cy="13243500.000000" r="500000.000000" /> 
</g>
<g style="fill:#FFFFFF; fill-opacity:1.0; 
stroke:#FFFFFF; stroke-width:21200.000000; stroke-opacity:1; 
stroke-linecap:round; stroke-linejoin:round;">
</g>
<g style="fill:#FFFFFF; fill-opacity:1.0; 
stroke:#FFFFFF; stroke-width:1.000000; stroke-opacity:1; 
stroke-linecap:round; stroke-linejoin:round;">
<circle cx="21108000.000000" cy="53375500.000000" r="500000.000000" /> 
</g>
<g style="fill:#FFFFFF; fill-opacity:1.0; 
stroke:#FFFFFF; stroke-width:21200.000000; stroke-opacity:1; 
stroke-linecap:round; stroke-linejoin:round;">
</g>
<g style="fill:#FFFFFF; fill-opacity:1.0; 
stroke:#FFFFFF; stroke-width:1.000000; stroke-opacity:1; 
stroke-linecap:round; stroke-linejoin:round;">
<circle cx="21108000.000000" cy="55915500.000000" r="500000.000000" /> 
</g>
<g style="fill:#FFFFFF; fill-opacity:1.0; 
stroke:#FFFFFF; stroke-width:21200.000000; stroke-opacity:1; 
stroke-linecap:round; stroke-linejoin:round;">
</g>
<g style="fill:#FFFFFF; fill-opacity:1.0; 
stroke:#FFFFFF; stroke-width:1.000000; stroke-opacity:1; 
stroke-linecap:round; stroke-linejoin:round;">
<circle cx="21108000.000000" cy="58455500.000000" r="500000.000000" /> 
</g>
<g style="fill:#FFFFFF; fill-opacity:1.0; 
stroke:#FFFFFF; stroke-width:21200.000000; stroke-opacity:1; 
stroke-linecap:round; stroke-linejoin:round;">
</g>
<g style="fill:#FFFFFF; fill-opacity:1.0; 
stroke:#FFFFFF; stroke-width:1.000000; stroke-opacity:1; 
stroke-linecap:round; stroke-linejoin:round;">
<circle cx="21108000.000000" cy="60995500.000000" r="500000.000000" /> 
</g>
<g style="fill:#FFFFFF; fill-opacity:1.0; 
stroke:#FFFFFF; stroke-width:21200.000000; stroke-opacity:1; 
stroke-linecap:round; stroke-linejoin:round;">
</g>
<g style="fill:#FFFFFF; fill-opacity:1.0; 
stroke:#FFFFFF; stroke-width:1.000000; stroke-opacity:1; 
stroke-linecap:round; stroke-linejoin:round;">
<circle cx="17552000.000000" cy="60995500.000000" r="500000.000000" /> 
</g>
<g style="fill:#FFFFFF; fill-opacity:1.0; 
stroke:#FFFFFF; stroke-width:21200.000000; stroke-opacity:1; 
stroke-linecap:round; stroke-linejoin:round;">
</g>
<g style="fill:#FFFFFF; fill-opacity:1.0; 
stroke:#FFFFFF; stroke-width:1.000000; stroke-opacity:1; 
stroke-linecap:round; stroke-linejoin:round;">
<circle cx="17552000.000000" cy="58455500.000000" r="500000.000000" /> 
</g>
<g style="fill:#FFFFFF; fill-opacity:1.0; 
stroke:#FFFFFF; stroke-width:21200.000000; stroke-opacity:1; 
stroke-linecap:round; stroke-linejoin:round;">
</g>
<g style="fill:#FFFFFF; fill-opacity:1.0; 
stroke:#FFFFFF; stroke-width:1.000000; stroke-opacity:1; 
stroke-linecap:round; stroke-linejoin:round;">
<circle cx="17552000.000000" cy="55915500.000000" r="500000.000000" /> 
</g>
<g style="fill:#FFFFFF; fill-opacity:1.0; 
stroke:#FFFFFF; stroke-width:21200.000000; stroke-opacity:1; 
stroke-linecap:round; stroke-linejoin:round;">
</g>
<g style="fill:#FFFFFF; fill-opacity:1.0; 
stroke:#FFFFFF; stroke-width:1.000000; stroke-opacity:1; 
stroke-linecap:round; stroke-linejoin:round;">
<circle cx="17552000.000000" cy="53375500.000000" r="500000.000000" /> 
</g>
<g style="fill:#FFFFFF; fill-opacity:1.0; 
stroke:#FFFFFF; stroke-width:21200.000000; stroke-opacity:1; 
stroke-linecap:round; stroke-linejoin:round;">
</g>
<g style="fill:#FFFFFF; fill-opacity:1.0; 
stroke:#FFFFFF; stroke-width:1.000000; stroke-opacity:1; 
stroke-linecap:round; stroke-linejoin:round;">
<circle cx="44476000.000000" cy="71663500.000000" r="500000.000000" /> 
</g>
<g style="fill:#FFFFFF; fill-opacity:1.0; 
stroke:#FFFFFF; stroke-width:21200.000000; stroke-opacity:1; 
stroke-linecap:round; stroke-linejoin:round;">
</g>
<g style="fill:#FFFFFF; fill-opacity:1.0; 
stroke:#FFFFFF; stroke-width:1.000000; stroke-opacity:1; 
stroke-linecap:round; stroke-linejoin:round;">
<circle cx="47016000.000000" cy="71663500.000000" r="500000.000000" /> 
</g>
<g style="fill:#FFFFFF; fill-opacity:1.0; 
stroke:#FFFFFF; stroke-width:21200.000000; stroke-opacity:1; 
stroke-linecap:round; stroke-linejoin:round;">
</g>
<g style="fill:#FFFFFF; fill-opacity:1.0; 
stroke:#FFFFFF; stroke-width:1.000000; stroke-opacity:1; 
stroke-linecap:round; stroke-linejoin:round;">
<circle cx="49556000.000000" cy="71663500.000000" r="500000.000000" /> 
</g>
<g style="fill:#FFFFFF; fill-opacity:1.0; 
stroke:#FFFFFF; stroke-width:21200.000000; stroke-opacity:1; 
stroke-linecap:round; stroke-linejoin:round;">
</g>
<g style="fill:#FFFFFF; fill-opacity:1.0; 
stroke:#FFFFFF; stroke-width:1.000000; stroke-opacity:1; 
stroke-linecap:round; stroke-linejoin:round;">
<circle cx="13996000.000000" cy="60995500.000000" r="500000.000000" /> 
</g>
<g style="fill:#FFFFFF; fill-opacity:1.0; 
stroke:#FFFFFF; stroke-width:21200.000000; stroke-opacity:1; 
stroke-linecap:round; stroke-linejoin:round;">
</g>
<g style="fill:#FFFFFF; fill-opacity:1.0; 
stroke:#FFFFFF; stroke-width:1.000000; stroke-opacity:1; 
stroke-linecap:round; stroke-linejoin:round;">
<circle cx="13996000.000000" cy="58455500.000000" r="500000.000000" /> 
</g>
<g style="fill:#FFFFFF; fill-opacity:1.0; 
stroke:#FFFFFF; stroke-width:21200.000000; stroke-opacity:1; 
stroke-linecap:round; stroke-linejoin:round;">
</g>
<g style="fill:#FFFFFF; fill-opacity:1.0; 
stroke:#FFFFFF; stroke-width:1.000000; stroke-opacity:1; 
stroke-linecap:round; stroke-linejoin:round;">
<circle cx="13996000.000000" cy="55915500.000000" r="500000.000000" /> 
</g>
<g style="fill:#FFFFFF; fill-opacity:1.0; 
stroke:#FFFFFF; stroke-width:21200.000000; stroke-opacity:1; 
stroke-linecap:round; stroke-linejoin:round;">
</g>
<g style="fill:#FFFFFF; fill-opacity:1.0; 
stroke:#FFFFFF; stroke-width:1.000000; stroke-opacity:1; 
stroke-linecap:round; stroke-linejoin:round;">
<circle cx="13996000.000000" cy="53375500.000000" r="500000.000000" /> 
</g>
<g style="fill:#FFFFFF; fill-opacity:1.0; 
stroke:#FFFFFF; stroke-width:21200.000000; stroke-opacity:1; 
stroke-linecap:round; stroke-linejoin:round;">
</g>
<g style="fill:#000000; fill-opacity:1.0; 
stroke:#000000; stroke-width:21200.000000; stroke-opacity:1; 
stroke-linecap:round; stroke-linejoin:round;">
</g>
<g style="fill:#000000; fill-opacity:0.0; 
stroke:#000000; stroke-width:100000.000000; stroke-opacity:1; 
stroke-linecap:round; stroke-linejoin:round;">
<circle cx="57396000.000000" cy="72281500.000000" r="2155261.000000" /> 
<circle cx="57396000.000000" cy="8281500.000000" r="2155261.000000" /> 
<path d="M50000 3429500
L61494000 3429500
" />
<path d="M61494000 3429500
L61494000 78429500
" />
<path d="M61494000 78429500
L50000 78429500
" />
<path d="M50000 78429500
L50000 3429500
" />
<circle cx="4396000.000000" cy="8281500.000000" r="2155261.000000" /> 
<circle cx="4396000.000000" cy="72281500.000000" r="2155261.000000" /> 
<g >
</g>
<g >
</g>
<g >
</g>
<g >
</g>
<g >
</g>
<g >
</g>
<g >
</g>
<g >
</g>
<g >
</g>
<g >
</g>
<g >
</g>
<g >
</g>
<g >
</g>
<g >
</g>
<g >
</g>
<g >
</g>
<g >
</g>
<g >
</g>
<g >
</g>
<g >
</g>
<g >
</g>
<g >
</g>
<g >
</g>
<g >
</g>
<g >
</g>
</g> 
</svg>
